<svg xmlns="http://www.w3.org/2000/svg" viewBox="0 0 122.38 18.33"><defs><style>.cls-1{fill:#323c41;}</style></defs><title>Asset 2</title><g id="Layer_2" data-name="Layer 2"><g id="Layer_1-2" data-name="Layer 1"><polygon class="cls-1" points="6.15 3.06 3 3.06 2.78 3.06 0 3.06 0 15.27 3 15.27 3 6.12 6.15 6.12 6.15 3.06"/><path class="cls-1" d="M90.55,3.06a6.1,6.1,0,1,0,6.1,6.1A6.1,6.1,0,0,0,90.55,3.06Zm0,9.15a3,3,0,1,1,3-3A3,3,0,0,1,90.55,12.21Z"/><path class="cls-1" d="M104.9,3.06a6.1,6.1,0,1,0,6.1,6.1A6.1,6.1,0,0,0,104.9,3.06Zm0,9.15a3,3,0,1,1,3-3A3,3,0,0,1,104.9,12.21Z"/><path class="cls-1" d="M30.77,10.7a3,3,0,1,1,0-3.07H34a6.1,6.1,0,1,0,0,3.07Z"/><rect class="cls-1" x="36.19" y="3.06" width="3.03" height="12.21"/><path class="cls-1" d="M76.19,3.06a6.07,6.07,0,0,0-3.07.84V0h-3V15.27h3v-.84A6.1,6.1,0,1,0,76.19,3.06Zm0,9.15a3,3,0,1,1,3-3A3,3,0,0,1,76.19,12.21Z"/><path class="cls-1" d="M53.58,9.16A6.1,6.1,0,0,0,44.4,3.9V3.06h-3V18.33h3v-3.9a6.1,6.1,0,0,0,9.18-5.27Zm-3.06,0a3,3,0,1,1-3-3A3,3,0,0,1,50.52,9.16Z"/><polygon class="cls-1" points="122.38 4.58 118.89 4.58 116.25 9.17 116.25 0.01 113.22 0.01 113.22 15.26 116.25 15.26 116.25 12.2 118.57 15.26 122.38 15.26 118.89 10.66 122.38 4.58"/><path class="cls-1" d="M61.83,3.06a6.1,6.1,0,1,0,5.53,8.68H63.49a3.05,3.05,0,0,1-4.32-1h8.56a6.09,6.09,0,0,0-5.9-7.64ZM59.18,7.63a3.07,3.07,0,0,1,5.31,0Z"/><path class="cls-1" d="M13.79,3.06a6.1,6.1,0,1,0,5.53,8.68H15.45a3.05,3.05,0,0,1-4.32-1h8.56a6.09,6.09,0,0,0-5.9-7.64ZM11.13,7.63a3.07,3.07,0,0,1,5.31,0Z"/></g></g></svg>